<svg xmlns="http://www.w3.org/2000/svg" width="24" height="24" viewBox="0 0 24 24" fill="none" stroke="currentColor" stroke-width="2" stroke-linecap="round" stroke-linejoin="round">
  <path d="M11.562 3.266a.5.5 0 0 1 .876 0L15.39 8.87a1 1 0 0 0 1.516.294L21.183 8.5a.5.5 0 0 1 .702.542L18.646 14.5a1 1 0 0 0 0 .707l3.241 5.058a.5.5 0 0 1-.702.542l-4.277-1.665a1 1 0 0 0-1.516.294l-2.952 5.603a.5.5 0 0 1-.876 0L8.61 18.13a1 1 0 0 0-1.516-.294L2.817 19.5a.5.5 0 0 1-.702-.542l3.241-5.058a1 1 0 0 0 0-.707L1.11 9.042a.5.5 0 0 1 .702-.542l4.277 1.665a1 1 0 0 0 1.516-.294l2.952-5.603z"></path>
  <circle cx="12" cy="12" r="3"></circle>
</svg>